<?xml version="1.0" encoding="UTF-8" standalone="no"?>
<!-- Generator: Adobe Illustrator 11.0, SVG Export Plug-In . SVG Version: 6.0.0 Build 78)  -->
<svg
   xmlns:xapGImg="http://ns.adobe.com/xap/1.0/g/img/"
   xmlns:xap="http://ns.adobe.com/xap/1.0/"
   xmlns:ns0="http://ns.adobe.com/SaveForWeb/1.0/"
   xmlns:ns="http://ns.adobe.com/Variables/1.0/"
   xmlns:i="http://ns.adobe.com/AdobeIllustrator/10.0/"
   xmlns:x="adobe:ns:meta/"
   xmlns:dc="http://purl.org/dc/elements/1.1/"
   xmlns:cc="http://creativecommons.org/ns#"
   xmlns:rdf="http://www.w3.org/1999/02/22-rdf-syntax-ns#"
   xmlns:svg="http://www.w3.org/2000/svg"
   xmlns="http://www.w3.org/2000/svg"
   xmlns:xlink="http://www.w3.org/1999/xlink"
   xmlns:sodipodi="http://sodipodi.sourceforge.net/DTD/sodipodi-0.dtd"
   xmlns:inkscape="http://www.inkscape.org/namespaces/inkscape"
   i:viewOrigin="-38.6162 791.9941"
   i:rulerOrigin="0 1"
   i:pageBounds="0 791 612 -1"
   width="1244"
   height="829.33331"
   viewBox="0 0 1244 829.3333"
   overflow="visible"
   enable-background="new 0 0 681.167 778.583"
   xml:space="preserve"
   id="svg2"
   sodipodi:version="0.32"
   inkscape:version="0.46+devel r20809"
   sodipodi:docname="promo.graphic.svg"
   inkscape:output_extension="org.inkscape.output.svg.inkscape"
   version="1.0"
   style="overflow:visible"
   inkscape:export-filename="/Users/christian/promo.png"
   inkscape:export-xdpi="13.022509"
   inkscape:export-ydpi="13.022509"><defs
   id="defs27"><linearGradient
     inkscape:collect="always"
     id="linearGradient3204"><stop
       style="stop-color:#000000;stop-opacity:1;"
       offset="0"
       id="stop3206" /><stop
       style="stop-color:#000000;stop-opacity:0;"
       offset="1"
       id="stop3208" /></linearGradient><inkscape:perspective
     sodipodi:type="inkscape:persp3d"
     inkscape:vp_x="0 : 389.2915 : 1"
     inkscape:vp_y="0 : 1000 : 0"
     inkscape:vp_z="681.16699 : 389.2915 : 1"
     inkscape:persp3d-origin="340.5835 : 259.52767 : 1"
     id="perspective31" /><inkscape:perspective
     id="perspective2956"
     inkscape:persp3d-origin="250 : 166.66667 : 1"
     inkscape:vp_z="500 : 250 : 1"
     inkscape:vp_y="0 : 1000 : 0"
     inkscape:vp_x="0 : 250 : 1"
     sodipodi:type="inkscape:persp3d" /><linearGradient
     inkscape:collect="always"
     xlink:href="#linearGradient3204"
     id="linearGradient3234"
     gradientUnits="userSpaceOnUse"
     x1="354"
     y1="-135.41701"
     x2="642"
     y2="330.58301" /><linearGradient
     inkscape:collect="always"
     xlink:href="#linearGradient3204"
     id="linearGradient3236"
     gradientUnits="userSpaceOnUse"
     x1="354"
     y1="-135.41701"
     x2="642"
     y2="330.58301" /><inkscape:perspective
     id="perspective4033"
     inkscape:persp3d-origin="0.5 : 0.33333333 : 1"
     inkscape:vp_z="1 : 0.5 : 1"
     inkscape:vp_y="0 : 1000 : 0"
     inkscape:vp_x="0 : 0.5 : 1"
     sodipodi:type="inkscape:persp3d" /><inkscape:perspective
     id="perspective4109"
     inkscape:persp3d-origin="0.5 : 0.33333333 : 1"
     inkscape:vp_z="1 : 0.5 : 1"
     inkscape:vp_y="0 : 1000 : 0"
     inkscape:vp_x="0 : 0.5 : 1"
     sodipodi:type="inkscape:persp3d" /><inkscape:perspective
     id="perspective4136"
     inkscape:persp3d-origin="0.5 : 0.33333333 : 1"
     inkscape:vp_z="1 : 0.5 : 1"
     inkscape:vp_y="0 : 1000 : 0"
     inkscape:vp_x="0 : 0.5 : 1"
     sodipodi:type="inkscape:persp3d" /></defs><sodipodi:namedview
   pagecolor="#ffffff"
   bordercolor="#666666"
   borderopacity="1"
   objecttolerance="10"
   gridtolerance="10"
   guidetolerance="10"
   inkscape:pageopacity="1"
   inkscape:pageshadow="2"
   inkscape:window-width="1440"
   inkscape:window-height="801"
   id="namedview25"
   showgrid="false"
   inkscape:zoom="0.5"
   inkscape:cx="330.30864"
   inkscape:cy="503.75679"
   inkscape:window-x="0"
   inkscape:window-y="322"
   inkscape:current-layer="svg2" />
	<metadata
   id="metadata4">
		<ns:variableSets>
			<ns:variableSet
   varSetName="binding1"
   locked="none">
				<ns:variables />
				<ns:sampleDataSets />
			</ns:variableSet>
		</ns:variableSets>
		<ns0:sfw>
			<ns0:slices />
			<ns0:sliceSourceBounds
   y="13.411"
   x="-38.616"
   width="681.167"
   height="778.583"
   bottomLeftOrigin="true" />
		</ns0:sfw>
<x:xmpmeta
   x:xmptk="XMP toolkit 3.0-29, framework 1.6">

<metadata
   id="metadata29"><rdf:RDF>

 <rdf:Description
   rdf:about="">
 </rdf:Description>

 <rdf:Description
   rdf:about="">
 </rdf:Description>

 <rdf:Description
   rdf:about="">
  <xap:CreateDate>2005-04-19T17:04:57Z</xap:CreateDate>
  <xap:ModifyDate>2005-04-19T18:04:24Z</xap:ModifyDate>
  <xap:CreatorTool>Illustrator</xap:CreatorTool>
  <xap:Thumbnails>
   <rdf:Alt>
    <rdf:li
   rdf:parseType="Resource">
     <xapGImg:format>JPEG</xapGImg:format>
     <xapGImg:width>224</xapGImg:width>
     <xapGImg:height>256</xapGImg:height>
     <xapGImg:image>/9j/4AAQSkZJRgABAgEASABIAAD/7QAsUGhvdG9zaG9wIDMuMAA4QklNA+0AAAAAABAASAAAAAEA
AQBIAAAAAQAB/+4ADkFkb2JlAGTAAAAAAf/bAIQABgQEBAUEBgUFBgkGBQYJCwgGBggLDAoKCwoK
DBAMDAwMDAwQDA4PEA8ODBMTFBQTExwbGxscHx8fHx8fHx8fHwEHBwcNDA0YEBAYGhURFRofHx8f
Hx8fHx8fHx8fHx8fHx8fHx8fHx8fHx8fHx8fHx8fHx8fHx8fHx8fHx8fHx8f/8AAEQgBAADgAwER
AAIRAQMRAf/EAaIAAAAHAQEBAQEAAAAAAAAAAAQFAwIGAQAHCAkKCwEAAgIDAQEBAQEAAAAAAAAA
AQACAwQFBgcICQoLEAACAQMDAgQCBgcDBAIGAnMBAgMRBAAFIRIxQVEGE2EicYEUMpGhBxWxQiPB
UtHhMxZi8CRygvElQzRTkqKyY3PCNUQnk6OzNhdUZHTD0uIIJoMJChgZhJRFRqS0VtNVKBry4/PE
1OT0ZXWFlaW1xdXl9WZ2hpamtsbW5vY3R1dnd4eXp7fH1+f3OEhYaHiImKi4yNjo+Ck5SVlpeYmZ
qbnJ2en5KjpKWmp6ipqqusra6voRAAICAQIDBQUEBQYECAMDbQEAAhEDBCESMUEFURNhIgZxgZEy
obHwFMHR4SNCFVJicvEzJDRDghaSUyWiY7LCB3PSNeJEgxdUkwgJChgZJjZFGidkdFU38qOzwygp
0+PzhJSktMTU5PRldYWVpbXF1eX1RlZmdoaWprbG1ub2R1dnd4eXp7fH1+f3OEhYaHiImKi4yNjo
+DlJWWl5iZmpucnZ6fkqOkpaanqKmqq6ytrq+v/aAAwDAQACEQMRAD8A9U4q7FXYq7FXYq7FXYq7
FXYq7FXYq7FWA/nnOyflrqNrFJwu9QltbOzAqC0slzH8II/yFY5laIfvAe63D15/dEd9fel/5Sfm
RNqM915N8xyhfNeivJbmRif9MjgYoZFJ6yLx+MdT9r+bjZq9Nw+uP0n9LXo9VxXCX1R299fpenZg
uwdirsVdirsVdirsVdirsVdirsVdirsVdirsVdirsVdirsVdirsVdirsVdirsVdirzb8y5P0t548
j+VIir/6cdavl/aSKxUmLl/kyMXX5jMzTjhhOflXzcHUniyQh538vwXkP50WV1pf5nXeoadK1rfK
0N7Z3CbMrlFqf+DU5vNFAZdOAelh57X5Dh1RI5Gi9q/Kb80rHztpJjn423mGxUDUrHpXt68VesbH
r/Kdj+yW0Wq0pxS8no9Hqxmj/S/G7PcxHMdirsVdirsVdirsVdirsVdirsVdirsVdirsVdirsVdi
rsVdirsVdirsVdiqjfXtpY2c97eSrBa20bSzzOaKiIOTMfkBhjEk0ESkALPJ5t+VcN55l8xaz+Y9
9G8UOoj6h5egkqGTT4W3fiS1PUdQTT9rlTY5makiERjHTn73B0oM5HKeuw9zz3/nIHgfPKkGrC0i
Vh8ixH683nY/9z8Xnu3P7/4PNbK+1TSdUt9Z0ac2uqWbcopV6MOhRgdirDYg7EZm6nTjIHB0upOK
Vh9Sfld+aWleeNLNAtprlqo/SGnE7g9PVjru0ZP/AAJ2PYnk9TpjiPk9npNXHLH+kzfMVy3Yq7FX
Yq7FXYq7FXYq7FXYq7FXYq7FXYq7FXYq7FXYq7FXYq7FXYqhNX1jS9H06fUtUuY7Sxt15TTymige
HuT0AG5OwyUIGRoc2M5iIsmg8xePWvzZuYvUim0r8t4XEhR6x3OrOhqtQN0twRUePXrThmXHAO/J
934/Hng1LUHux/7r9n493SLy803Q9MjRUWGCBBFa2sYCiiCioqjoAPuzFhCU5OXkyRxxfKnn7X21
3zRd3vPmgPpxsOhCk1p7ciae2djpMPh4wHhtbn8XKZMezKcVu1uNQ07UYNV0m5ex1S1blBcxmh6U
IbsQRsQdiNjtmPn08cgouTp9TLGbD3r8vf8AnIXSdS9LS/NwTSNWpxW+O1nOagA8j/dMa78vh2+0
NlzmtV2dKB9O4/Hzeq0nakMgqWx7/wAcnsMckckayRsHjcBkdTUEHcEEdQc1rtQW8VdirsVdirsV
dirsVdirsVdirsVdirsVdirsVdirsVdirsVYX5m/NDStN1A6HotvJ5i8zmoXSbEg+mQaE3M26Qqp
+1XcdxTfMnHpiRxS9Me9xcuqAPDH1S7h+lLtL/LfVdd1CHXfzFuk1K6i+Oy0CCo020PiUJPrP/lN
/wANtSUtQIjhx7Dv6lhDTGR4sps93QMq8w6xe6ZCPqtpWOgH1g09NewHFd/vpkMGITO5bNRmlAbB
41+aGqeYpdL+sxzkwseF69aOEagUL2Ckmhp/XN7oMcBKq9zzvaOTIY3fveRZunROxV2KrJYo5UKS
KGU9jkZRB2KYyINhPPKfnzzr5PcDQ78y2ANW0q7rLbnqTxFQUqT+wVr3zXajs6GR2ml7Unj26fZ+
Pc9p8n/85GeVNTZLTzDE+gag1F5yVktHJIG0qiqVJJ+NeIH7WaPP2dOHLd6DT9qY589vuerWt1a3
dvHc2syXFtMoaKaJg6Op6FWUkEfLMAgg0XZAgiwq4EuxV2KuxV2KuxV2KuxV2KuxV2KuxV2KuxV2
KsT81/mb5Z8u3K6czyalrsp4waLp6/WLtmIBAZF2TY1+MjbpXL8enlIXyj3lx8uqjA1zl3BIDoP5
m+dG5eYLz/Cfl9+ui6dIHvpUI+zPdAUQGvRO2xWu+W8ePH9I4pd55fJp8PLl+o8Ee4c/mzTyz5S8
u+WbAWOh2MdnBt6hQVkkI/akkNXc/wCscx8mWUzci5WLFGAqIpN8rbEh85X8UGlNbk1luSFVf8lS
Cx/hmTpYEyvucXVzAhXe8P8AzM1aODSU05TWa7YMy+EcZ5VPzYCn050Ghx3Li7nmu0MtR4epeYZt
nTOxV2KuxV2KrXjSReLqGU9jvgIB5pEiOSP8ueZPNPlW49fy5qUlopPKWyc+pbSf60bVWtO9K+BG
YOfQQyBz9N2jPGeb3DyL/wA5E6JqkkeneaoV0TUm+FbqpNlIf9diTF/siV/ys0Op7OnDlv8Aj7Xo
9L2pDJ9W33fsevo6uodCGRgCrA1BB6EHNa7VvFXYq7FXYq7FXYq7FXYq7FXYq7FUFrOtaTounTal
qt1HZ2MA5Szymg+Q7sx7KNz0GShAyNDmwnOMRZNB5sNd8/fmPJw8uer5W8nk/Frkq0vrte/1VP8A
dans9ffl1XMzgx4fq9U+7oHC48mb6fRDv6lmnk7yB5X8o2pi0e0Czy/7030p9S5mPjJKd+u/EUX2
zGy55ZDu5WHTwxj0hkWVNzsVQeq6ra6bamec79I4x9pm8BlmPGZmg15cogLLyzzT5nSKOfVdRegG
0cY7/wAsaD/PxzcafBdRi6PU6irnJ4drGrXWq6hLe3J+OQ/Cg6Io+yo9hm/x4xCNB5vLlM5cRQWW
NbsVdirsVdirsVdiqyWKOVCkihlPY5GUQRRTGRBsMq8ifml5r8jukELHVPL4Px6XMxrECeRa3fco
eu32dztXfNTrOzYz3HP8fN3Oi7VlDY8vx8n0x5O87+XfN+ljUdEufVQUE9u9Fmhcj7EqVPE7deh7
E5zuXDLGaL1GHPHILin2VNzsVdirsVdirsVdirsVdirHfO3njSPKWmpc3vO4vbpvR0zTIByuLqba
iRoKnqRyam1R3IBuw4TM7cupaM+cYxvzPId7FdG/L/WfNOpQ+ZfzG4SvH8Wl+WENbS0U71mHSWU/
tV2+YoFunnEBw4/ie9ohp5ZDx5fgOgemABQFUUA2AHQDMNznYq7FUBq+s2mmQepMeUjf3UI+0x/g
PfLMWIzOzVlzCA3eZ+ZfMqhJdT1OUJEgoqjoPBEHic2+DB/DF0uo1H8Ui8U8y+ZLzXLz1Zf3dvHU
W8AOyg9z4se5ze4MAxiurzuo1ByGzySjL2h2KuxV2KuxV2KuxV2KuxV2Kq+i6xrflzVk1ny/cm0v
0BWRRvHMhNWjkToymnfvv1ocw9TpI5Byc3S62WKXN9P/AJY/mno/niwZUAs9btVrf6YzVZRWnqRk
05xknr+ydj2J5bU6WWI+T2Gk1ccw25s3zFct2KuxV2KuxV2KuxVjfnrztZeVNMjmaFr7VL1/Q0nS
od5rmc9FUCp4rUc2pt8yAbsOEzPcBzLRnzjGO8nkO9J/IvkPUIdQk83ecJFvvN96tFUbwWEJ6W9s
NwKV+Jh953ZrM2YEcENoD7WvBpyDxz3mfsZ5mK5bsVdiqQa55strLlBa0nuhsf5EPue59hmTh0xl
udg4mbVCOw3LzbzL5otrGN77U5zJNJ9iPYu58FHgPuGbbBpzLaIdPqNSI+qR3eP+YfMd/rd36twe
EKf3FupPBB/FvE5usOGOMUHQZ88shspVlzS7FXYq7FXYq7FXYq7FXYq7FXYq7FW7S71LTNSt9X0i
4az1Wzbnb3CfcVYHZlYbEHYjY7ZjajTjJGi5Om1MscgQX1N+Vn5mWHnjRTIVFtrVmFTVLEVornpJ
HUk+m9DSu46HxPJarTHFKuj2mk1QzRvqzbMZy3Yq7FXYq7FUp80+Z9K8s6JcaxqblbeAUSNRWSWR
tkijX9p3Ow+87VOWYsZnKg15coxx4ixfyF5V1G61B/PPmtQ/mS/TjZWp3TTrQ1KQRV/bIb429z4m
t+fIAOCP0j7S42nxEnxJ/UfsDPsxHNdiqGv9SsrCH1bqURr+yvVmPgo6nJwgZGgwnkjEWWF6z5tv
L3lDbVt7Y7Gh+Nh7kdPkMz8WmEdzuXW5tUZbDYPNfM3n2x0wNbWXG6vhsQDWOM/5RHU+wza4NIZ7
nYOn1GtjDYbyeY6hqN7qF011eStNM/Vj2HgB0A9hm1hARFB008hmbKHybF2KuxV2KuxV2KuxV2Ku
xV2KuxV2KuxV2Kq2keYNW8r63beYdHfhd2x4zRmvCaI/aikA6q39o3AzB1unGSO7n6DVSxy2fXvk
3zbpXmzy9a63pj1huBSSIkF4pV2eJx2ZT94oRsRnJZcRhKi9phyjJHiCdZW2uxV2KuxV4xBrkHn/
APMKG9d+flPQrkQaVG1Alxdj+9um/mA+zH7b7EnNpHEcWM/ziHUSzDNlH8wF7PmrduhrzUrGzXlc
zpF4An4j8lG5ycYSlyDCeSMeZY1qfnjYx6dHTt68g/4iv9fuzLx6T+c4WTW/zWD6/wCZbSyU3eq3
f7xvsqx5SNTsq/5jNhhwGW0Q63PqBHeZeZeY/P8AqOpcreyrZ2R2ND+9cf5TDp8h+ObXDo4x3O5d
Nn1sp7DYMVzMcJ2KuxV2KuxV2KuxV2KuxV2KuxV2KuxV2KuxV2KqVyvKCQexP3b5CY2LLGakGU/k
t+YreTfM6295KV8v6syxXoP2YZekc48OPR/8nxoM0eu03HGxzD0PZ+q8OVH6S+uc596V2KuxV5T/
AM5BeepNE8tJoGnyBdW14NC1KForSlJnPcc68F2/mpuubDs/T8c77vvdb2nqfDx11P3ftSDybZ29
l5W0yC3+wIEckfzSDm//AAzHNhmFTIdZgNwBZIdX1UoEN5NwApx9Run35j+FHuDk+LPvKU6nrGna
fGZr+5SEHcczVm+SirN9GXQxSltENGTLGO8iwXXPzNlflDpEXpr0+tSgFvmqdB9NflmwxaEc5Otz
doHlD5sIubq5upmnuZWmmfdpHJYn6TmfGIAoOtlIyNlSySHYq7FXYq7FXYq7FXYq7FXYq7FXYq7F
XYq7FXYq7FVkv90/+qf1ZGXIpjzCSsoZSp6HMEi3YA0+pv8AnHvz23mDymdHvZOWq6FxgYk7yWxB
ED/7ELwPyBPXOd12DgnfQvT9najjhR5h6pmE7BxIUEk0A3JPQDFXxx5180yebvOepa8WLWhf6tpa
GtFtYiQlASePP7bD+YnOu7O0/hweK7T1PiT/AB8FbR/Oeu6Vbi2t5Ve3WvCKVeQWu+xFD+OZOTTQ
mbPNxcWrnAUOSreefvM9ypX6yIFPUQqFP/Bbt+OCOkxjometyHrSQzTTTSGWaRpZG3Z3JZj8ycyA
AOTjEk7lZhQ7FXYq7FXYq7FXYq7FXYq7FXYq7FXYq7FXYq7FXYq7FXYqo3Tcbdz4in37ZDIaiWeM
XIJVmE5rKfyu83Hyn5607VJH4WEzfVNS3oPq8xALN1/u2o/+xzE1mHjge9ztDn8PID0fZ+c29U8/
/PXzM+g/lxqBhJW71QrptsQAd7gH1K+H7lZKHxpmXosfHkHlu4Wvy8GI+e34+D5egiEMKRjoop9P
fOyhGhTw05cRJVMkxdirsVdirsVdirsVdirsVdirsVdirsVdirsVdirsVdirsVdirsVdiqD1F6Iq
eJqfoyjMdqb8A3tAZjOStdeSFfHEi0g0X2H+THmg+Y/y70u6lfneWifUbw7k+pb0UFierPHxc/PO
Z1ePgyEPW6PLx4we7Z5b/wA5LawbrzXoehrQx2Fs99LQ1+Od+Chh2KiGo/1s2nY+Lmfxt/a6jtzL
VR8vv/seV50TzDsVdirsVdirsVdirsVdirsVdirsVdirsVdirsVdirsVdirsVdirsVdiqU3UvqTM
w6DZfkMwskrLm440FLIM3Yq9y/5xZ11kvte8vuzFZEj1C3SvwqVPpTGni3OP7s03aePlJ33ZGTnF
hH5m6kNU/NDzLdgcVhuFslFa/wC8qCFvvaOubbsvHWMe7793T9r5OLKff92zH82bqXYq7FXYq7FX
Yq7FXYq7FXYq7FXYq7FXYq7FXYq7FXYq7FXYq7FXYqhr2f04+A+2/wCAyrLOhTbihZtLcxHLdirs
VZx+R+qjTfzT0ZmcpDeetZy0/a9WJvTX/kaEzC18Lxl2PZs6yhIZb+TUtR1LU5TWW/vJ7mQ7btK5
Y9AB1ObPSQ4YU6nWz4slt5lOI7FXYq7FXYq7FXYq7FXYq7FXYq7FXYq7FXYq7FXYq7FXYq7FXYqs
llWJC7dug8TkZSoWmMSTSUySNI5dupzDlKzbnRjQpbkUuxV2Kpj5Xv107zXoeoMKrZ6hazMOlVSV
WI6HqBlOojcCHI00uGYPmt0r/eGM9yWJ/wCCObDT/QHXan6yjMuaHYq7FXYq7FXYq7FXYq7FXYq7
FXYq7FXYq7FXYq7FXYq7FXYqtd1RSzGgGAmkgEmgldxO0z1Oyj7IzDnPiLmQhwhSyDN2KuxV2KrJ
WKKHHVWDCnscjPkzx80z0r/eCL/Zf8SOZmn+gOFqfrKLy5pdirsVdirsVdirsVRWmaTqeq3aWem2
sl3cv9mKFS7U8TToPc5DJkjAXI0GePFKZqIsvUfL/wDzjvr92iy61exaap3MEY9eX5Egqg+hmzUZ
u2oDaA4vsd1g7ByS3meH7WaWX/OPfkeFP9Imvbp6blpUQV9giL+vMCXbOY8qDsYdhYBzMiipvyG/
LyQUW3uIjSlUnYmvj8fLIDtfP3j5Nh7F056H5pDq3/OOGjyKzaTq09u/UJdIkyn2qnpEfccycfbc
v4og+78FxcvYED9EiPfv+p5z5l/J/wA8aCrTSWf160Xc3FkTKAPFkoJB8+NM2mDtLDk2uj5uo1HZ
WfFvXEPL8Wwrpme652KuxV2KuxV2KrJJEjXk5oMjKQHNMYknZLLi4eZt9lH2VzEnMycyEBFSyDN2
KpxoXk3zVr9To+lXN6gNGljjPpA+BkNEB+ZyvJmhD6iA3Y8E5/SCUXrX5ceetFga41LRLqG3QVkn
CepGo8WePmq/ScjDU45bAhlk0mWAsxLHMucdSuP7lvo/XkZ8mcOab2UTwpLbuKPBLJGw8Crb5laY
3FxNUKmicyHHdirsVdirsVdirM/y6/LPVfOF5zqbXR4WpdXxFanr6cQP2n/Be/YHA1uujgHfLudh
oOzpag90BzP6n0n5a8qaF5bsBZaRarAlB6svWWVh+1I/Vj+rtnK59RPLK5F7HT6aGGPDAUm+Ut7s
VdirsVdirC/On5T+VfNCvM8X1HVGqRf24AYt/wAWpssn07++Z+l7RyYtuce4uu1fZmLNvXDLvH6e
98++dPy68x+Uril/D6tk5pDfw1MLeAJ/Yb/Jb6K50ul1uPMPTz7nldXoMmA+obd/RjGZbhOxV2Kq
U9xHCu+7HouQnMRZwgZJZNM8rcmPyHYZiSkTzcuMRHksyLJMdB8va1r+opp2j2kl5dybhEGyjuzs
aKqjxY0yGTJGAuRoNmLFKZqIsvoXyB/zjvomlCO+8zsmq6gKMLNa/VIz4MDQyn/WovseuabUdoyl
tDYfa77TdlxjvP1H7P2vX4YYYIkhhRYoowFjjQBVVR0AA2AzWk27UCuS/rscCXz1+f35V2OnwHzZ
ocAggLhNVtYxRFaRqLOo/Z5MQrAdyD45uez9WZeiXwdD2nohEeJH4/reFNGZSkQ3MjqoHuTTNpM7
Ooxjdmfniwl078w/NFlKgjP6QluUQbD07ljNHQf6jjJdmzvGPcEdqwMcp95SnNg612KuxV2KuxVP
vJPlK981eYbfSbaqI37y6npURQqRzf8AGg9yMxtVqBhgZH8FydHpTnyCA+PufWej6Pp2j6bBpunQ
iC0tlCRov4sT3Yncnuc43LklORlLmXu8WKOOIjEUAjMrbHYq7FXYq7FXYq7FVK6tLW7t5La6iSe3
lHGWGRQyMD2KnY4YyMTY2LGURIURYeH/AJh/kPLD6up+U1MsW7S6Uxq69z6DH7Q/yTv4E9M6DRdr
g+nL8/1vN67sUj1Yv9L+p4zLHJFI0cqmORCVdGBDKR1BB6ZvQb3edIINFA3F8q1WLdv5uwymeWuT
fDDfNAMzMSWNSepOY5NuSBTsCvSfy5/JHzD5rMV/fctL0JqMLmRf3sy9f3CHsf5228OXTMLU66OP
YbydjpOz55dztF9LeVfJ/l/ytpq6fo1qtvFsZZT8UsrfzSOd2P4DtQZosuaWQ3IvQ4cEMYqITnKm
52KuxVLvMejw6zoOoaTKAUvreSCp7F1IVv8AYnfJ458MhLua8uPjiY94fGPk3T/rvnjy/YSoSs2p
WyTJ0PATLz6+C1zpdTKsZPk8ppI3kA8w9E/5yE0Y6f8AmRBqSowg1qzUtIfsme3/AHbKp/yY1jr8
8p7Hy7cP473I7cxVLi7/AOz9Tz3N6887FXYq7FXYq+jPyA8sx2HlaTWpE/0rVnPBj1EEJKKPpcMf
fbOX7Yz8WTg6R+963sPT8OLjPOX3B6jmod27FXYq7FXYq7FXYq7FXYq7FWGeffyo8secYme5Q2Wp
0omo24Ac06CRfsyD57+BGZmn1uTFsDce5wdT2fjy7kVLveB+ZPyB/MDSJnNnbLq9oD8E9qw507co
XIcH/VqPfNti7Qxy5mi6bL2ZljyHEPJBaH+R/wCZGrSqv6LOnwk0a4vmEKrv/J8Up+hMlk12KPW/
cwx9nZpdK972vyJ+QPlfy88d7qpGs6olGUyrS3jYb/BFvyI8Xr7AZq9R2hOew9IdxpuzIY95eqX2
PUemwzXuydirsVdirsVdir5V/JPShqf5zC4SMfV9NF5esjbhQawp17q8ykZvddOsVd9PO9nQvNfd
b1D/AJyT8vG+8kwa1CtbnQrlZSe/oTkRSAD/AF/TPyBzC7Ny8OSu/wDQ5/amHjx33fp/AfPSsGUM
u6sKg+xzrgbeKIrZdhV2KuxV2KvsbyhZJY+VdHtEACw2cCmnc+mvI9up3zhtTLiySPmX0HSw4cUR
/RCb5S3uxV2KuxV2KuxV2KuxV2KuxV2KtO6Ipd2CqNyxNAPpOKrLe5t7iP1LeVJo605xsGWo9xXC
QRzQCDyVMCXYq7FXYq7FXYqgde1FdM0PUNRY0Wytprgn/jFGX7/LJ448UgO8sMk+GJPcHi//ADi1
5f4abrXmKRRyupksrZjXkEgXnIR24u0i/SubDtLJchF1fZOKomXwe2apptpqmmXem3il7S9hkt51
BoTHKpRqHtsc10ZGJBHR2s4iQIPV8XXmk3uh6tf6DfD/AEvS53gdqEB1B+CReQB4uvxL7EZ2WjzC
cBTwutwnHMgrcy3DdirsVdir7M8tzJP5d0uaM1jls4HQ+zRKR0zhc4qch5l9C05vHE/0R9yY5U3O
xV2KuxV2KuxV2KuxV2KoXVNV03SrKS+1K5jtLSIVknmYIo9qnuew75KMDI0BZYzmIiyaDxDzx/zk
qiM9n5QthJSqnU7pTxPvFDsfpf8A4HNrg7M6z+TptR2t0xj4l4rr3mvzJr85m1nUp71iahZXPpr/
AKkYoi/7EDNpjwxh9Ip0+TNOZuRtT0LzHrmg3q3uj3stlcKQS0TEBgOzr9lx7MKYcmOMxUhaMeWU
DcTT6T/Kr879P80elpOtcLHX/sxsPhhuT/xXU/DJ/kd+3gNHq9CcfqjvH7nodF2iMnpltL73qma9
2bsVdirsVdirzn8/tdOmflzeW0JJvNXkjsLZF3ZjI3JwB7xow+nMvRQvJfc4XaE6xEd+zJvIHlhP
K/k7StDFPVtIB9ZINQZ5CZJiDtt6jNT2ynNk45kt+nxcEBFkGVNzwP8A5yR8mPBPZ+drKIlAFs9Z
CD9kmkEzUHieBJP8gzcdlanhPCfx+Obo+2NJxDiH47v1fJ46CCAQag7g50zybeFXYq7FX0/+SXmG
PVvItrblq3Wlk2ky9+K/FEaeHpkD5g5yXauHgzE9Jbvadj5/EwAdY7fqZ9mtdo7FXYq7FXYq7FXY
q7pucVeXfmB+fflvy76tjpHHWNXWqkRt/o0Tf8WSD7RH8qfIkZsNP2fKe8vTF1uq7Shj2j6pfY+d
PNnnbzL5rvvretXjT8SfRtx8MMQPaOMbD59T3ObrDghjFRDoM+onlNyKR5a0OxV2Kto7o6ujFXUh
lZTQgjcEEYpfSX5L/nQdcMfl3zHKq6sqhbG9Y0+sgbcHr/u3wP7Xz66PW6Lg9UeX3PQdn9ocfon9
XQ9/7Xsuax27sVdirsVeUXFPPP5yQRIfU0DyIPVmcGqSanIfhXYj+6KA+xQj9rM0fu8X9Kf3OvP7
3N/Rh971fMJ2DsVQuq6XYatptzpuoRCeyvI2hniboUcUPyPgR0yUZGJsMZwEhR5F8a+bvLeo+SvM
115fvqywxn1LG5Ip61s5PpyD7qMOzAjtnVaPV8UQ8drtEYTKDjmikFUYH275sYyB5OslEjmvyTF2
Ksp/Lrzzd+UNeW9QGWxnAi1C2HV4615LXbmnVfu75h63SDPCuo5OboNYdPk4v4TzfU2ia5pWt6bF
qOl3C3NpMPhdeoPdWB3Vh3BzkMuKWOXDIUXtsOaOSPFE2Edlba7FXYq7FXYqwvzp+bnkzyojx3N2
LzUlqF061Ikl5DtIR8Mf+yNfAHMrBo55OQod7h6jXY8XM2e4Pnvz5+dXm3zYJLVX/RmkPUfUbdjV
1PaaXZn+Wy+2bnT6KGPfnJ0Wp7QyZduUe55/mY4D1b8s/wAiNV8yxxaprbvpmivRolAAuJ18UDVC
Kf5mHyBG+a/Va8Q2jvJ2mk7Nlk9Uto/aXvWiflf5B0aER2eiWrMOs1xGLiUn/Xl5sPo2zUT1WSXO
Rd3j0eKHKITE6J5Suf3JsLCbv6fowv09qHK+OY6ls8PGegSHzJ+Tn5fa7bSRvpMNjcMDwu7FVt5F
Y/tUQBG/2SnLsWtyQPO/e0ZdBimOVe58sedPKWo+U/MV1ot98TwnlDOBRZYW3SRfmOo7Go7Z0GDM
MkRIPNajAcUzEpIjujq6MVdSGVlNCCNwQRlrS+kvyb/OuLWUg8veZJgmsCkdnfPstz4I57S/8S/1
uuj1uh4fVH6fueg0HaHH6J/V39/7Xsuax27sVeffm9+Yz+WNMi0rSAbjzXrBFvpdrGOToZDw9Yr8
zRB3b2BzK0uDjNn6Q4er1PAOGP1nknP5beS4/KHlW20xmE2oSE3OqXNSxlupaGRqncgUCg+Ar1yv
Pl45X06Numw+HCuvVlGUt7sVdirBPzd/LW387+XfTh4xa5Y8pdMuDsCx+1C5/kkp9BofEHJ0uoOO
Xk4mr0wyx/pDk+RJ4Lq1uZrS7ia3vLZ2iuIHBV0dDRlIPQgjOkhMSFh5XJAxNFct1cL0c/Tv+vLR
kkOrSccT0X/Xrn+b8BkvFkjwYtG9uT+3T6Bg8WS+FFNfLfnbzR5bvfrmj38ltIaepHs0UgHZ42qr
fdt2yjNjjlFS3cjBlliNwNPXtD/5yilWNU13RQ7j7VxZScQf+eUnL/k5mrydlfzT83b4+2P50fky
eD/nJb8v5FBkt9RhboVaGI/TVZW2yg9mZPJyR2ti7pfj4oiT/nIz8t0Usr3kh/lW33/4ZlGR/k3L
5Mj2rh8/kx7Wf+cotKRGXRdFnnc/ZkvHSEA+JSP1a/8ABDL4dlH+I/JoydsR/hj83mPmn86fP/mJ
Xhmv/qNm9QbWxBhUg9mepkYexamZ2LRY4dLPm63N2hlydaHkwbrucy3Cdir2L/nH38utI8wXV1r2
rotzbabIsVvZNQo8xXlzlU9VUUoOhPyzW9o6mUAIx6u27M0sZkylvXR6f+aP5yaR5OibT7EJf+YG
X4bWv7uAHo05X7wg3PsN8wNLopZdztF2Ws18cWw3l+Ob5q8x+d/NfmO4ebWNSnuQ5qIORWFfZYlo
g+7N5jwQgPSHncuonkPqKRqxUhlNCNwR1By1pewfkn+berafrttoGuXj3WkX7CG3lnYu1vM20dHa
p4MfhIOw67b11uu0YMeKI3Dtuz9dKMhCRuJ+xk3/ADlDpNgdK0bV+SrqCTtaBP2pIXQyE/KNk/4b
KOypmzHo5HbEBwxl15PnnNy6F3TcYq9e8j/85E69otqlhr1udZtYwFiuefC5VR2ZiGEn00Puc12f
s6MjcfS7XT9qygKkOIfanWvf85RyNaOmi6N6Nwymlzdyhwh8REgHL6W+jKYdlgbyOzfk7XJFQjv5
pl+R/kfVtU1F/wAyPNrSXGpXgJ0hZ/tBGHE3BXtVfhjHTjuBQqcp1mYAeHDkG/Q6ck+LPcnl+v8A
U9uzWu1dirsVdirsVeSfnb+Tg80RN5g0KNU8x26UmhFFF5GgoFJ6eooFFPcfCe1M/R6vwzR+l12u
0XiDij9X3vmJlkSR4pUaKaJiksTgqyspoVYHcEHN/GQIealEg0XYWLsVdirsVdirsVdirsVdirsV
Tfy/5v8AMvl4XI0XUJbEXahLj0iByC1odwaEVNCN8ryYYT+oXTdizzx3wmrSqWaWaV5pnaSWQlpJ
HJZmYmpJJ3JOWAU1E2txQ7FXdNxiqO1bXda1idJ9Vvp7+aNQkclxI0hVR2HImgyMMcY8hTOeSUzc
jaByTB2KtEgCp2AxV6h+Sv5RTebb1Nd1mIp5ZtX/AHUTAg3kqH7I/wCKlP227/ZHfjrNbrOH0x+p
2+g0PGeKX0/e+qERERURQqKAFUCgAGwAAzRvQt4q7FXYq7FXYq7FXk/5v/kja+aRJrehBLXzIgrI
hosV2FH2X7LJ/K/0N4rnaTWHHsfpddrNCMm8fq+98x3lne2F7NYahbvaX1u3Ce2lUq6t7g5voZBI
WHnMmMxNFTybW7FXYq7FXYq7FWU/l/8Al3rnnbU5LTTikMFsFe8vJa8IlckLsN2ZuJ4j27ZRqNTH
ELLk6XSyzSodE/8APX5FebPLEAvLX/czp4Ws01tGwkiI684qs3Gn7Qr70ynBr4ZNj6S36ns7JjFj
1B5vma692KuxV2KuxVdHHJJIscal5HIVEUEkk9AAMSUgPUvIX5AeZ9dljutdV9G0rYsJBS6kHWiR
n7Hzfp4HNfqO0IQ2j6j9jstN2ZOe8vTH7WL/AJoeT7Lyj5wudGsZ5Li1jjiliaYqZAJEBKuVCqTX
2G2ZGlzHJDiPNxtZgGLIYjkxFmVRUmgzIJcYC3q/5R/khfeZ5INb8xRva+XBSSC2NUlvO490iPdu
pH2f5hq9XruH0x5/c7fRdnmXql9P3vp61tba0torW1iSC2gRY4YY1CoiKKKqqNgAM0pJJsu/AAFB
VwJdirsVdirsVdirsVdirDvzD/K3y153swL+P6tqcS8bTVIQPWj7hW6eolf2W96EHfMjBqZYztyc
bUaWOUb8+98v+efy182eSrkrqtv62nM3G31WAFoHr0DGnwP/AJLfRUb5vNPq45B5vO6nRTxnyYuC
CKg1GZbht4odirsVdir0H8nvzOTyRq1yt5C02k6l6a3fp/3kbRluEig9aB25L3+jMPWaXxRtzDn6
DWeDI39JfU+h+YdF16wS/wBIvIr21f8AbiapU/yuv2lb2YVzn8mOUDUhT0uPLGYuJsJJ5i/KvyF5
hkebUdIh+tPu11BWCUsf2maIrzP+tXLceryQ5Fpy6LFk5x3YRe/84xeT5W5WepX9sD+y5ilA+XwI
fxzLj2pPqA4cuyMfQlLf+hWbD/qYZf8ApGX/AKqZP+VT/N+1r/kYfzvsXxf84taUHrLr87p4Jbop
+8u36sT2qf5qR2NH+d9ie6Z/zjd+Xtqwa6a91Ajqk0wRD9EKxt/w2Uy7SynlQbodk4hzssystA8h
+TbJru3tLLR7eMUe8fgjUPZppPjPyLZjSyZMpokycuOLFiFgCLzDz5/zkhYW8clj5Qi+s3Jqp1Sd
SsKe8UbfE592oPY5n6fs0nefyddqe1gNse/m8Hrr/mbXWWJJ9X1q+cswQGSR2PUmnQAfQB4DNoZR
xx7gHTxhPLLvJe9/ll/zjvaac0Wr+cRHfagKPDpS0e2hPX96ekrDw+x/rZp9TrzLaPLvd5pezRHe
e57nt3TYZrXauxV2KuxV2KuxV2KuxV2KuxV2Kqdza211byW11Ek9vMpSWGVQ6Op2KsrVBB98IJG4
QQCKLxnzv/zjTomoNJe+VLn9EXjfEbGbk9mx2+yRyki7n9odgBmwwdoSjtLd1mo7MjLeOzwvzR5I
83eVZeGvaZLaxk8Uu1HqW7k9OMqckr/k1r7ZtsWphPkXS5tJPHzCRqysKqa5kAuMRS7FDsVdiqM0
nWtX0i6F3pV7NY3I/wB2wSNGxHgeJFR7HIzhGQoi2cMkoG4mnoej/wDORX5iWCBLp7XU1G3K5h4v
T/WhMX3kHMKfZuI8rDn4+1csedFktt/zlNqC0+s+XopfH07lo/8AiUcmUHsodJfY5A7ZPWP2q7f8
5UtxPHywA1Nib6or8vq4wfyV/S+z9rL+Wf6H2/sQVx/zlHrbD/RtCtozTrJLJJv/ALER5IdlR6yL
A9sS6RDH9W/5yK/Ma+Rkt5bXTVO3K2hq1P8AWnM33jLodnYhzstE+1M0uVD3MDutU8z+adTRJZbz
W9SkqIYgZLiTxIRRyoPZRmSODGNqAcUjJlO9kvTPJn/ONvmbVDHdeZ7gaNYmhNnEVlu3XY0JFY46
g9SWI7rmBn7SA2ju7HT9lSO89vve++UvI/lfylY/VNCsUtgwHrzn45pSO8kjVZvGnQdgM1WXNKZu
Rd1iwQxiohPcqbXYq7FXYq7FXYq7FXYq7FXYq7FXYq7FXYqtliimieKVFkikUpJG4DKysKEEHYgj
EFSLeeeZfyD/AC41xnlSxbSbtjUz6c3oiv8AxiIaGnyQH3zLx63JHrfvcLLoMU+le55nrf8Azi75
jtyW0PWra9jAJ9K8R7d6jooKesrH3PHM2HaY6h1+Tsg/wn9DB9U/J/8ANDTAGuPL08yE0DWjJdV/
2MLSMPpGZcNdjPVw59n5Y9P0/cxq/wBI1vTnKajpl5ZOOq3EEkRHQ9HA8Rl8c0TyLjSwTjzCBM8Q
NCaHwIOT4ww4C19Yh/m/A48YXgKvbw3Vy4S2t5p3PRYo2cmvsBgOQBIxSLINP/Lb8xdRkSO18tX/
AO8pweeFrdDXoecwRKe9cplrMY6hyI6HKehZfo3/ADjd+Y19Rr97PSY6gMssvrS08VWESIfpcZjT
7SgOW7lY+yZnnt+PJ6J5e/5xi8n2bLLrd9c6zIp3iH+iwEe6RlpPukzCydozPLZz8XZeOPPf7HqO
h+WtA0G2+raNp8FhCQAywRqhbjsC7D4nPuxJzCnklLmbdhDHGAqIpMsgzdirsVdirsVdirsVdir/
AP/Z</xapGImg:image>
    </rdf:li>
   </rdf:Alt>
  </xap:Thumbnails>
 </rdf:Description>

 <rdf:Description
   rdf:about="">
  <dc:format>image/svg+xml</dc:format>
 </rdf:Description>

<cc:Work
   rdf:about=""><dc:format>image/svg+xml</dc:format><dc:type
     rdf:resource="http://purl.org/dc/dcmitype/StillImage" /><dc:title></dc:title></cc:Work></rdf:RDF></metadata></x:xmpmeta>
                                                                                                                                                                                                                                                                                                                                                                                                                                                                                                                                                                                                                                                                                                                                                                                                                                                                                                                                                                                                                                                                                                                                                                                                                                                                                                                                                                                                                                                                                                                                                                                                                                                                                                                                                                                                                                                                                                                                                                                                                                                                                                                                <?xpacket end='w'?>
			</metadata>
		<g
   id="Layer_1"
   i:layer="yes"
   i:dimmedPercent="50"
   i:rgbTrio="#4F008000FFFF"
   transform="matrix(0.8355763,0,0,0.8355763,39.383453,133.20391)">
			<path
   i:knockout="Off"
   d="m 510.167,144.833 c -39.75,-24.75 -77.25,-34.5 -114.75,-59.25 -23.25,-15.75 -55.5,-53.25 -82.5,-85.5 -5.25,51.75 -21,72.75 -39,87.75 -38.25,30 -62.25,39 -95.25,57 -27.75,14.25 -178.5,104.25 -178.5,297.75 0,193.5 162.75,336 343.5,336 180.75,0 337.5,-131.25 337.5,-330 0,-198.75 -147,-288.75 -171,-303.75 z"
   id="path7"
   style="fill:#00598e" />
			<path
   i:knockout="Off"
   d="m 449.25,610.5 c 12,0 24.75,0.75 33.75,6.75 9,6 14.25,19.5 17.25,27 3,7.5 0,12 -6,15 -5.25,3 -6,1.5 -11.25,-8.25 -5.25,-9.75 -9.75,-19.5 -36,-19.5 -26.25,0 -34.5,9 -47.25,19.5 -12.75,10.5 -17.25,14.25 -21.75,8.25 -4.5,-6 -3,-12 5.25,-19.5 8.25,-7.5 21.75,-19.5 34.5,-24.75 12.75,-5.25 19.5,-4.5 31.5,-4.5 l 0,0 z"
   id="path9"
   style="fill:#ffffff" />
			<path
   i:knockout="Off"
   d="m 324.75,696 c 15,12 37.5,21.75 85.5,21.75 48,0 81.75,-13.5 96.75,-24.75 6.75,-5.25 9.75,-0.75 10.5,2.25 0.75,3 2.25,7.5 -3,12.75 -3.75,3.75 -38.25,27.75 -78.75,31.5 -40.5,3.75 -95.25,6 -128.25,-24 -5.25,-5.25 -3.75,-12.75 0,-15.75 3.75,-3 6.75,-5.25 11.25,-5.25 4.5,0 3.75,0 6,1.5 l 0,0 z"
   id="path11"
   style="fill:#ffffff" />
			<path
   i:knockout="Off"
   d="m 141,639 c 57,-0.75 67.5,-10.5 117.75,-33 271.5,-121.5 321.75,-232.5 331.5,-258 9.75,-25.5 24,-66.75 9,-112.5 -2.896,-8.832 -5.006,-15.924 -6.53,-21.63 C 556.641,173.527 520.821,151.513 510,144.75 471,120 432.75,110.25 395.25,85.5 372,70.5 339.75,32.25 312.75,0 c -5.25,51.75 -20.25,73.5 -39,87.75 -38.25,30 -62.25,39 -95.25,57 C 150.75,159.75 0,249 0,442.5 0,504.28 16.593,560.861 45.063,609.266 L 52.5,609 c 15.75,14.25 40.5,30.75 88.5,30 z"
   id="path13"
   style="fill:#0073ba" />
			<path
   i:knockout="Off"
   d="M 510,144.75 C 471,120 432.75,110.25 395.25,85.5 372,70.5 339.75,32.25 312.75,0 c -5.25,51.75 -20.25,73.5 -39,87.75 -38.25,30 -62.25,39 -95.25,57 C 150.75,159.75 0,249 0,442.5 0,504.28 16.593,560.861 45.063,609.266 105.763,712.467 220.46,778.5 343.5,778.5 524.25,778.5 681,647.25 681,448.5 681,339.354 636.668,263.012 592.72,213.87 556.641,173.527 520.82,151.513 510,144.75 z m 91.164,87.797 c 49.242,61.564 74.211,134.221 74.211,215.953 0,47.428 -9.033,92.23 -26.849,133.165 -16.9,38.831 -41.236,73.233 -72.333,102.254 -61.469,57.364 -144.107,88.956 -232.693,88.956 -43.826,0 -86.832,-8.371 -127.824,-24.882 C 175.413,731.776 139.129,708.555 107.833,678.974 41.923,616.678 5.625,532.696 5.625,442.5 c 0,-80.336 26.076,-151.72 77.503,-212.167 39.289,-46.18 81.655,-71.774 98.047,-80.634 7.958,-4.341 15.423,-8.172 22.643,-11.877 22.63,-11.615 44.005,-22.586 73.404,-45.645 15.677,-11.914 32.377,-30.785 39.489,-78.702 24.774,29.466 53.522,62.579 75.49,76.752 19.5,12.87 39.501,21.888 58.844,30.61 18.298,8.25 37.219,16.781 55.942,28.663 0.032,0.021 0.702,0.438 0.702,0.438 54.732,34.172 83.892,70.628 93.475,82.609 z"
   id="path15"
   style="fill:#004975" />
			<path
   i:knockout="Off"
   d="m 316.5,15 c 10.5,30.75 9,46.5 9,53.25 0,6.75 -3.75,24.75 -15.75,33.75 -5.25,3.75 -6.75,6.75 -6.75,7.5 0,3 6.75,5.25 6.75,12 0,8.25 -3.75,24.75 -43.5,64.5 -39.75,39.75 -96.75,75 -141,96.75 C 81,304.5 60,303 54,292.5 48,282 56.25,258.75 84,228 111.75,197.25 199.5,153 199.5,153 L 309,76.5 315,47.25"
   id="path17"
   style="fill:#93c5e4" />
			<path
   i:knockout="Off"
   d="m 316.5,14.25 c -6.75,49.5 -21.75,64.5 -42,80.25 -33.75,25.5 -66.75,41.25 -74.25,45 -19.5,9.75 -90,48.75 -126.75,105 -11.25,17.25 0,24 2.25,25.5 2.25,1.5 27.75,4.5 82.5,-28.5 54.75,-33 78.75,-52.5 109.5,-84.75 16.5,-17.25 18.75,-27 18.75,-31.5 0,-5.25 -3.75,-7.5 -9.75,-9 -3,-0.75 -3.75,-2.25 0,-4.5 C 280.5,109.5 296.25,102 300,99 c 3.75,-3 21.75,-15 22.5,-34.5 0.75,-19.5 -0.75,-33 -6,-50.25 l 0,0 z"
   id="path19"
   style="fill:#ffffff" />
			<path
   i:knockout="Off"
   d="m 147.75,559.5 c 0.75,-58.5 55.5,-113.25 124.5,-114 87.75,-0.75 148.5,87 192.75,86.25 37.5,-0.75 109.5,-74.25 144.75,-74.25 37.5,0 48,39 48,62.25 0,23.25 -7.5,65.25 -25.5,91.5 -18,26.25 -29.25,36 -50.25,34.5 C 555,643.5 501,559.5 466.5,558 c -43.5,-1.5 -138,90.75 -212.25,90.75 -45,0 -58.5,-6.75 -73.5,-16.5 -22.5,-15.75 -33.75,-39.75 -33,-72.75 l 0,0 z"
   id="path21"
   style="fill:#ffffff" />
			<path
   i:knockout="Off"
   d="m 599.25,235.5 c 15,45.75 0.75,87 -9,112.5 -9.75,25.5 -60,136.5 -331.5,258 C 208.5,628.5 198,638.25 141,639 93,639.75 68.25,623.25 52.5,609 l -7.437,0.266 C 105.763,712.467 220.46,778.5 343.5,778.5 524.25,778.5 681,647.25 681,448.5 681,339.354 636.668,263.012 592.72,213.87 c 1.524,5.706 3.634,12.798 6.53,21.63 z"
   id="path23"
   style="fill:none" />
		</g>
	<g
   id="g3214"
   inkscape:transform-center-y="-85.842584"
   transform="matrix(-0.95380653,0.30042156,-0.30042156,-0.95380653,1047.4183,507.7689)"
   inkscape:transform-center-x="27.037925"
   style="stroke:#000000"><path
     id="path2906"
     d="M 321.30224,305.99968 V 474.97191"
     style="fill:url(#linearGradient3234);fill-opacity:1;stroke:#000000;stroke-width:131.66667175;stroke-linecap:round" /><path
     id="path2930"
     d="M 321.30224,305.99968 V 474.97191"
     style="fill:url(#linearGradient3236);fill-opacity:1;stroke:#97c03d;stroke-width:79;stroke-linecap:round;stroke-opacity:1" /></g><g
   id="g3218"
   transform="translate(329.38345,17.203914)"
   style="stroke:#000000"><path
     id="path2898"
     d="M 687.77447,58.027451 661.44114,97.527453"
     style="stroke:#000000;stroke-width:65.83333588;stroke-linecap:round" /><path
     id="path2900"
     d="m 455.16335,58.027451 26.33334,39.500002"
     style="stroke:#000000;stroke-width:65.83333588;stroke-linecap:round" /><path
     id="path2902"
     d="m 496.8578,608.83302 v 83.38889"
     style="stroke:#000000;stroke-width:131.66667175;stroke-linecap:round" /><path
     id="path2904"
     d="m 646.08003,608.83302 v 83.38889"
     style="stroke:#000000;stroke-width:131.66667175;stroke-linecap:round" /><path
     id="path2908"
     d="M 821.63559,305.99968 V 474.97191"
     style="stroke:#000000;stroke-width:131.66667175;stroke-linecap:round" /><ellipse
     transform="matrix(2.1944445,0,0,2.1944445,22.857788,-49.500329)"
     id="ellipse2910"
     cy="132"
     cx="250"
     ry="75"
     rx="90"
     sodipodi:cx="250"
     sodipodi:cy="132"
     sodipodi:rx="90"
     sodipodi:ry="75"
     style="fill:#97c03d;stroke:#000000;stroke-width:12;stroke-linecap:round"
     d="m 340,132 c 0,41.42136 -40.29437,75 -90,75 -49.70563,0 -90,-33.57864 -90,-75 0,-41.421356 40.29437,-75 90,-75 49.70563,0 90,33.578644 90,75 z" /><path
     id="path2912"
     d="M 768.96892,253.33301 H 373.96891 v 302.83334 a 54.861113,54.861113 0 0 0 54.86111,54.86112 h 285.27779 a 54.861113,54.861113 0 0 0 54.86111,-54.86112 z"
     style="fill:#97c03d;stroke:#000000;stroke-width:26.33333397;stroke-linecap:round" /><circle
     transform="matrix(2.1944445,0,0,2.1944445,22.857788,-49.500329)"
     id="circle2916"
     r="9"
     cy="99"
     cx="214"
     sodipodi:cx="214"
     sodipodi:cy="99"
     sodipodi:rx="9"
     sodipodi:ry="9"
     d="m 223,99 c 0,4.97056 -4.02944,9 -9,9 -4.97056,0 -9,-4.02944 -9,-9 0,-4.970563 4.02944,-9 9,-9 4.97056,0 9,4.029437 9,9 z"
     style="fill:#000000;stroke:#000000" /><circle
     transform="matrix(2.1944445,0,0,2.1944445,22.857788,-49.500329)"
     id="circle2918"
     r="9"
     cy="99"
     cx="286"
     sodipodi:cx="286"
     sodipodi:cy="99"
     sodipodi:rx="9"
     sodipodi:ry="9"
     d="m 295,99 c 0,4.97056 -4.02944,9 -9,9 -4.97056,0 -9,-4.02944 -9,-9 0,-4.970563 4.02944,-9 9,-9 4.97056,0 9,4.029437 9,9 z"
     style="fill:#000000;stroke:#000000" /><path
     id="path2922"
     d="M 687.77447,58.027451 635.1078,137.02745"
     style="stroke:#97c03d;stroke-width:13.16666698;stroke-linecap:round;stroke-opacity:1" /><path
     id="path2924"
     d="m 455.16335,58.027451 52.66667,78.999999"
     style="fill:#97c03d;fill-opacity:1;stroke:#97c03d;stroke-width:13.16666698;stroke-linecap:round;stroke-opacity:1" /><path
     id="path2926"
     d="m 496.8578,608.83302 v 83.38889"
     style="stroke:#97c03d;stroke-width:79;stroke-linecap:round;stroke-opacity:1" /><path
     id="path2928"
     d="m 646.08003,608.83302 v 83.38889"
     style="stroke:#97c03d;stroke-width:79;stroke-linecap:round;stroke-opacity:1" /><path
     id="path2932"
     d="M 821.63559,305.99968 V 474.97191"
     style="stroke:#97c03d;stroke-width:79;stroke-linecap:round;stroke-opacity:1" /></g><g
   id="g4149"
   transform="matrix(0.40656543,0.91362167,-0.91362167,0.40656543,900.70524,493.0803)"
   inkscape:transform-center-x="-144.94618"
   inkscape:transform-center-y="-77.786887"><g
     transform="translate(-0.12773723,0.63868613)"
     id="g4144"><path
       style="fill:#ffccaa;stroke-width:1px"
       d="m -453.29926,260.13775 26.36313,67.44526 26.36313,-67.44526 c -19.36352,-11.32462 -36.40862,-7.96592 -52.72626,0 z"
       id="path4086"
       transform="translate(0,-8.3711462e-6)"
       sodipodi:nodetypes="cccc" /><path
       sodipodi:nodetypes="cccc"
       id="path4142"
       d="m -435.16057,306.54226 8.22444,21.04074 8.22445,-21.04074 c -5.48296,-1.81733 -10.96593,-1.58571 -16.44889,0 z"
       style="fill:#97c03d;fill-opacity:1;stroke-width:1px" /></g><path
     sodipodi:nodetypes="ccccc"
     id="rect4010"
     d="m -450.99994,23.582954 c 16,-3.24806 32,-3.223941 48,0 l 0,233.999996 c -15.82718,-4.14779 -31.83221,-4.02702 -48,0 l 0,-233.999996 z"
     style="fill:#97c03d;fill-opacity:1;stroke:#000000;stroke-width:5;stroke-miterlimit:4;stroke-opacity:1" /></g></svg>